<?xml version="1.0" ?><!DOCTYPE svg  PUBLIC '-//W3C//DTD SVG 1.1//EN'  'http://www.w3.org/Graphics/SVG/1.1/DTD/svg11.dtd'><svg height="512px" style="enable-background:new 0 0 512 512;" version="1.1" viewBox="0 0 512 512" width="512px" xml:space="preserve" xmlns="http://www.w3.org/2000/svg" xmlns:xlink="http://www.w3.org/1999/xlink"><g id="_x31_8_x2C__blood_x2C__drop_x2C__liquid_x2C__Plus_x2C__Minus"><g><path d="M211.305,354.41v-9.568h-27.441c-2.206,0-3.99-1.785-3.99-3.99v-27.439    h-9.567v27.439c0,2.205-1.785,3.99-3.99,3.99h-27.441v9.568h27.441c2.206,0,3.99,1.783,3.99,3.988v27.441h9.567v-27.441    c0-2.205,1.785-3.988,3.99-3.988H211.305z M219.284,340.852v17.547c0,2.205-1.785,3.99-3.99,3.99h-27.439v27.439    c0,2.205-1.785,3.99-3.991,3.99h-17.547c-2.206,0-3.988-1.785-3.988-3.99v-27.439h-27.441c-2.206,0-3.99-1.785-3.99-3.99v-17.547    c0-2.207,1.785-3.989,3.99-3.989h27.441v-27.44c0-2.206,1.783-3.99,3.988-3.99h17.547c2.206,0,3.991,1.784,3.991,3.99v27.44    h27.439C217.499,336.862,219.284,338.645,219.284,340.852z M373.125,253.406v-9.568h-72.43v9.568H373.125z M381.104,239.848    v17.547c0,2.206-1.785,3.99-3.99,3.99h-80.407c-2.205,0-3.99-1.784-3.99-3.99v-17.547c0-2.172,1.785-3.988,3.99-3.988h80.407    C379.318,235.859,381.104,237.676,381.104,239.848z M287.688,382.531c-13.622-6.066-25.916-14.564-36.295-24.975    c-16.995-16.997-28.413-38.404-33.115-61.791l-0.164-0.844l-0.031-0.258l-0.227-1.104v-0.13l-0.195-0.972l-0.065-0.52    l-0.098-0.585l-0.162-0.907l-0.033-0.229l-0.162-1.102v-0.163l-0.129-0.94l-0.097-0.582l-0.065-0.553l-0.098-0.941l-0.032-0.194    l-0.13-1.103v-0.227c-0.52-5.061-0.779-10.217-0.553-15.277v-0.292v-0.065l0.033-0.226v-0.325l0.032-0.291l0.033-0.617    l0.032-0.227v-0.064l0.033-0.292v-0.325l0.032-0.293l0.033-0.291l0.032-0.324v-0.13l0.033-0.161l0.032-0.325l0.033-0.291    l0.032-0.325l0.033-0.324l0.065-0.291l0.032-0.324l0.033-0.325l0.032-0.292l0.065-0.324l0.033-0.324l0.032-0.195l0.033-0.129    l0.032-0.292l0.065-0.325l0.033-0.324l0.065-0.324l0.032-0.324l0.031-0.065l0.034-0.258l0.064-0.325l0.065-0.324l0.032-0.324    l0.065-0.325l0.065-0.26v-0.065l0.065-0.324l0.065-0.355c1.493-7.493,3.569-14.402,6.163-21.797l0.13-0.324l0.26-0.714    l0.098-0.227l0.032-0.099l0.097-0.355l0.13-0.356l0.129-0.325l0.13-0.355l0.13-0.358l0.13-0.291v-0.033l0.13-0.356l0.13-0.356    l0.13-0.358l0.13-0.355l0.162-0.324c-16.737-29.679-40.512-69.832-50.534-103.501c-8.758,28.704-30.327,67.044-52.383,106.257    c-29.841,53.001-60.589,107.654-60.589,139.732c0,31.203,12.65,59.453,33.117,79.887c20.434,20.435,48.684,33.085,79.887,33.085    C233.75,485.999,282.824,441.012,287.688,382.531z M419.182,285.16c0.064-2.174,1.883-3.926,4.055-3.86    c2.206,0.034,3.926,1.882,3.893,4.056c0,0.194-1.006,66.849-59.031,69.541c-2.207,0.096-4.056-1.59-4.152-3.796    c-0.064-2.173,1.621-4.054,3.794-4.118C418.274,344.613,419.182,285.322,419.182,285.16z M257.361,386.164    c0.065-2.174,1.883-3.926,4.056-3.861c2.205,0.034,3.925,1.85,3.892,4.056c0,0.194-1.005,66.85-59.031,69.541    c-2.206,0.097-4.055-1.621-4.152-3.796c-0.065-2.172,1.622-4.053,3.794-4.151C256.455,445.616,257.361,386.325,257.361,386.164z     M226.483,253.697c-0.388,1.59-0.712,3.113-1.037,4.606l-0.065,0.325l-0.227,1.2l-0.033,0.291l-0.065,0.292l-0.065,0.293v0.031    l-0.031,0.26l-0.065,0.291l-0.034,0.293l-0.065,0.291l-0.031,0.291l-0.034,0.26v0.033l-0.065,0.292l-0.031,0.291l-0.034,0.294    l-0.065,0.259l-0.096,0.876l-0.033,0.291l-0.032,0.26l-0.033,0.291l-0.032,0.293l-0.033,0.162v0.098l-0.032,0.291l-0.032,0.26    l-0.033,0.292v0.26l-0.032,0.291l-0.033,0.13v0.13v0.293l-0.032,0.26c-0.325,5.188-0.065,10.347,0.421,15.503l0.031,0.227    l0.13,1.07v0.13l0.358,2.821l0.031,0.195l0.195,1.233l0.13,0.843l0.065,0.553l0.097,0.486l0.163,0.906l0.195,1.169l0.065,0.227    c4.248,22.12,15.017,42.458,31.073,58.48c20.434,20.435,48.684,33.084,79.887,33.084c31.172,0,59.423-12.649,79.889-33.084    c20.434-20.435,33.084-48.686,33.084-79.887c0-31.853-30.1-85.11-59.616-137.397c-22.38-39.701-44.501-78.818-53.388-108.625    c-8.758,28.705-30.328,67.076-52.384,106.29C265.309,166.381,236.506,212.926,226.483,253.697z" style="fill-rule:evenodd;clip-rule:evenodd;"/></g></g><g id="Layer_1"/></svg>