<?xml version="1.0" ?><svg id="solid" viewBox="0 0 512 512" xmlns="http://www.w3.org/2000/svg"><title/><path d="M189.893,244.618a8,8,0,0,1,0-11.314l22.627-22.628a8,8,0,0,1,11.313,0l33.941,33.941a8,8,0,0,1,0,11.315l-22.627,22.627a8,8,0,0,1-11.314,0ZM450.108,63.6,421.824,91.882l16.97,16.971a8,8,0,0,1,0,11.314l-44.58,44.58a49.754,49.754,0,0,1,4,51.323A168.079,168.079,0,0,1,403.049,256c0,72.728-46.6,134.768-111.5,157.861V432h80a40.046,40.046,0,0,1,40,40v16a8,8,0,0,1-8,8h-336a8,8,0,0,1-8-8V472a40.045,40.045,0,0,1,40-40h80V392a55.722,55.722,0,0,1,3.257-18.8L77.893,268.284a8,8,0,0,1,0-11.314l22.627-22.627a8,8,0,0,1,11.313,0L216.748,339.257a55.893,55.893,0,0,1,58.578,13.37,104.406,104.406,0,0,0,63.628-111.652,49.233,49.233,0,0,1-13.972-7l-21.5,21.5a8,8,0,0,1-11.314,0l-79.195-79.2a8,8,0,0,1,0-11.314L348.284,29.656a8,8,0,0,1,11.315,0l16.97,16.97,28.284-28.283a8,8,0,0,1,11.314,0l33.941,33.941a8,8,0,0,1,0,11.315ZM371.13,176.513a24.311,24.311,0,1,0,0,34.385A24.309,24.309,0,0,0,371.13,176.513ZM259.549,392a24,24,0,1,0-24,24A24.027,24.027,0,0,0,259.549,392Z" style="fill:#3b3b3b"/></svg>